<svg xmlns="http://www.w3.org/2000/svg" width="40" height="40" viewBox="0 0 40 40">
  <path fill="#00B0EA" d="M23.7797259,29.7458195 C24.5149897,28.5737376 25.333491,27.4433173 26.351762,26.4239949 C27.3811314,25.3935627 28.5270331,24.565884 29.711779,23.8243061 L31.3904002,31.4678356 L23.7797259,29.7458195 Z M36.709271,10.2481534 C30.8243857,1.70473156 20.009071,-0.267254619 11.7935381,4.24331658 C12.0876437,4.0850022 12.3651017,3.87947124 12.6647564,3.73504409 L9.35190732,0.418774375 C8.89410153,-0.0395041029 8.16993603,-0.139492134 7.62334367,0.207688531 C6.15004143,1.14091016 4.75442744,2.23522361 3.47257125,3.51840335 C2.21013713,4.78214097 1.1335999,6.15419896 0.209664593,7.60124797 C-0.13993255,8.15118215 -0.0400476518,8.87887282 0.417758129,9.3371513 L3.7222835,12.6450887 C4.62957132,10.7675356 5.83928841,9.00385786 7.39582807,7.44571103 C8.5001111,6.3402878 9.73479942,5.46539252 11.0166556,4.69326272 C10.6670585,4.90990346 10.3146867,5.1209893 9.97618793,5.3598496 C10.8529554,4.75158907 11.7630178,4.22665191 12.7063751,3.77392832 L27.5281841,18.6110412 C25.7052847,19.663693 23.9822703,20.9385404 22.4285052,22.4966872 C20.8941622,24.029837 19.6345026,25.7351885 18.5912604,27.5266407 L3.77222595,12.6950827 C0.373364842,19.7859006 1.59140568,28.5376308 7.45964342,34.4174825 C15.7861595,42.7498185 29.9004504,41.7554931 36.8452254,31.4289514 C41.1042065,25.0908212 41.0431657,16.5362896 36.709271,10.2481534 Z"/>
</svg>
